<?xml version="1.0" encoding="UTF-8"?>
<svg id="Layer_1" data-name="Layer 1" xmlns="http://www.w3.org/2000/svg" viewBox="0 0 2001.94 2001.94">
  <defs>
    <style>
      .cls-1 {
        fill: #003e1e;
      }
    </style>
  </defs>
  <path class="cls-1" d="M264.91,999.97c0-405.87,330.19-736.04,736.06-736.04s736.03,330.18,736.03,736.04-330.19,736.07-736.03,736.07-736.06-330.19-736.06-736.07M250.86,999.97c0,413.6,336.5,750.11,750.11,750.11s750.09-336.51,750.09-750.11S1414.57,249.88,1000.97,249.88,250.86,586.37,250.86,999.97M207.36,999.97c0-437.59,356.01-793.58,793.62-793.58s793.59,355.99,793.59,793.58-355.99,793.62-793.59,793.62S207.36,1437.56,207.36,999.97M174.59,999.97c0,455.67,370.7,826.38,826.38,826.38s826.38-370.71,826.38-826.38S1456.63,173.59,1000.97,173.59,174.59,544.31,174.59,999.97M129.51,999.97c0-480.52,390.93-871.45,871.46-871.45s871.45,390.93,871.45,871.45-390.93,871.45-871.45,871.45S129.51,1480.49,129.51,999.97M118.98,999.97c0,486.33,395.64,882,881.99,882s881.99-395.67,881.99-882S1487.31,117.97,1000.97,117.97,118.98,513.65,118.98,999.97"/>
  <g>
    <g>
      <g>
        <path class="cls-1" d="M903.7,1000.71c3.16,2.07,8.03,5.05,13.87,8.54-4.98-3-9.68-5.9-14.09-8.68.07.05.15.1.22.14Z"/>
        <path class="cls-1" d="M1125.88,1145.5c.18-.48.23-.87.75-3.36-.23,1.12-.52,2.21-.78,3.32.01.01.02.03.03.04Z"/>
        <path class="cls-1" d="M1123.66,1080.62c.07.23.16.45.23.68-.08-.23-.15-.46-.23-.68Z"/>
        <path class="cls-1" d="M819.01,874.4c-.03,1.17.02,2.35.05,3.52.08-3.55.28-7.05.65-10.49-.73,2.08-.65,4.79-.69,6.96Z"/>
        <path class="cls-1" d="M832.08,933.72c-7.43-13.68-11.66-28.54-12.77-44.55.07,2.28.17,4.56.38,6.84.55,5.94,1.52,11.85,3.22,17.58,5.61,18.9,18.52,38.41,32.39,52.34,11.71,11.76,25.89,20.48,39.86,29.32-9.94-6.48-18.17-12.3-24.68-17.43-16.87-13.31-29.67-28.01-38.4-44.08Z"/>
        <path class="cls-1" d="M946.78,1026.31c23.67,13.64,47.4,27,47.4,27,0,0,0,0,0,0-10.63-6.22-23.46-13.54-38.47-21.95-3.05-1.71-6.01-3.38-8.93-5.04Z"/>
        <path class="cls-1" d="M1019.06,980.58c-4.3-2.46-8.71-4.89-13.14-7.3,4.62,2.54,9.03,4.99,13.29,7.39-.05-.03-.1-.06-.15-.09Z"/>
        <path class="cls-1" d="M1002.66,971.5c.63.34,1.27.69,1.89,1.03-.63-.34-1.26-.69-1.89-1.03Z"/>
        <path class="cls-1" d="M1049.48,998.35c-.07-.04-.13-.08-.2-.12,2.51,1.54,4.92,3.03,7.21,4.49-2.42-1.56-4.92-3.16-7.01-4.37Z"/>
        <path class="cls-1" d="M1061.05,1005.64c-.07-.04-.15-.09-.22-.14,3.64,2.36,6.94,4.59,9.97,6.7-3.17-2.28-6.41-4.48-9.75-6.57Z"/>
        <path class="cls-1" d="M1126.75,1141.63c.05-.22.09-.43.14-.68,4.37-20.38,3.14-39.81-2.4-57.72,3.18,10.71,4.79,21.71,4.79,33.01,0,8.76-.85,17.22-2.53,25.39Z"/>
        <path class="cls-1" d="M830.89,860.33c.13.11.25.23.37.34,2.83,2.63,5.25,5.66,7.82,8.54,2.24,2.53,4.37,4.92,6.56,7.26,2.13,2.28,4.27,4.54,6.45,6.78,8.87,9.12,16.46,16.03,23.9,21.75l.37.28c17.18,13.13,36.1,23.45,54.62,29.8,0,0,.16.05.2.07,4.57,1.56,9.35,2.89,14.18,4.12-28.13-17.16-47.07-31.64-56.81-43.42-9.88-11.71-14.81-24.68-14.81-38.91,0-18.6,7.8-35.18,23.42-49.76,15.61-14.58,35.35-21.87,59.23-21.87,21.12,0,41.55,5.4,61.3,16.19,19.74,10.79,34.95,25.37,45.63,43.74,10.68,18.37,18.08,43.05,22.21,74.04h12.74v-161.51h-12.74c-2.3,10.79-5.34,17.97-9.12,21.52-3.79,3.56-8.67,5.34-14.64,5.34-5.28,0-14.35-2.87-27.21-8.61-27.78-12.17-54.07-18.25-78.86-18.25-39.72,0-72.44,12.11-98.15,36.33-7,6.59-13.43,13.82-18.89,21.74-5.14,7.46-9.4,15.52-12.54,24.01-1.64,4.42-2.89,8.94-4.04,13.51-.04.17-.08.35-.01.51.07.16.23.25.38.34,3.02,1.73,5.86,3.79,8.44,6.13Z"/>
        <path class="cls-1" d="M1111.78,1147.61c-.34-.55-.67-1.09-1.01-1.59-1.52-2.27-3.07-4.53-4.63-6.78-3.2-4.6-6.44-9.07-9.63-13.28-6.95-9.18-13.75-17.32-20.8-24.9-3.58-3.85-8.36-8.79-13.57-12.8-8.95-6.88-19.55-12.13-31.52-15.61-2.61-.76-5.34-1.43-8.17-2.05,2.74,1.82,4.95,3.37,6.62,4.65,13.31,10.1,23.13,21.01,29.44,32.71,6.31,11.71,9.47,23.31,9.47,34.78,0,20.66-8.32,38.57-24.97,53.72-16.65,15.15-39.32,22.73-68.01,22.73-24.79,0-47.58-5.51-68.36-16.53-20.78-11.02-36.22-24.85-46.32-41.5-10.11-16.64-18.14-41.72-24.11-75.24h-12.74v160.13h12.74c1.6-10.79,4.07-17.91,7.4-21.35,3.33-3.44,7.86-5.17,13.6-5.17s20.15,3.62,42.53,10.85c22.39,7.23,37.13,11.42,44.25,12.57,11.94,2.06,24.68,3.1,38.23,3.1,43.16,0,78.46-12.8,105.9-38.4,15.55-14.51,26.69-30.6,33.42-48.25l-4.9-5.14c-2.12-2.22-3.64-4.69-4.87-6.68Z"/>
        <path class="cls-1" d="M1056.49,1002.72c1.53.99,3.02,1.95,4.34,2.78-1.4-.91-2.85-1.84-4.34-2.78Z"/>
        <path class="cls-1" d="M1004.55,972.53c.46.25.91.5,1.37.75-.45-.25-.92-.5-1.37-.75Z"/>
        <path class="cls-1" d="M1019.21,980.67c10.59,6.17,19.46,11.45,30.07,17.57-8.73-5.35-18.74-11.2-30.07-17.57Z"/>
        <path class="cls-1" d="M1126.75,1141.63c-.04.17-.08.36-.11.51.04-.17.07-.34.11-.51Z"/>
        <path class="cls-1" d="M903.48,1000.57c-2.75-1.8-5.53-3.57-8.32-5.33,2.65,1.73,5.43,3.51,8.32,5.33Z"/>
        <path class="cls-1" d="M819.06,877.93c-.02.92-.07,1.83-.07,2.76,0,2.87.13,5.69.32,8.48-.08-2.62-.13-5.23-.21-7.85-.03-1.13-.02-2.26-.04-3.4Z"/>
        <path class="cls-1" d="M1123.66,1080.62c-1.94-6.01-4.34-11.93-7.29-17.75-8.61-16.99-20.89-31.74-36.85-44.25-2.54-1.99-5.47-4.14-8.72-6.41,24.64,17.75,43.74,41.26,52.86,68.41Z"/>
        <path class="cls-1" d="M1123.89,1081.3c.21.64.4,1.29.6,1.94-.19-.65-.39-1.29-.6-1.94Z"/>
        <path class="cls-1" d="M946.78,1026.31c-10.43-6.01-20.83-12.06-29.21-17.06,8.84,5.34,18.58,11.02,29.21,17.06Z"/>
      </g>
      <path class="cls-1" d="M819.85,867.16c.03-.08,1.75,1.57,1.87,1.7.4.42.81.84,1.19,1.28.76.86,1.52,1.75,2.27,2.62.65.75,1.28,1.52,1.95,2.25,1.38,1.5,2.76,3,4.13,4.5,3.87,4.22,7.78,8.41,11.78,12.52,7.94,8.16,16.23,16.02,25.26,22.96.13.1.27.21.4.31,17.47,13.36,37.51,24.63,58.33,31.77l.11.04c15.85,5.42,32.84,8.43,49.23,11.86,1.7.36,3.44.56,5.09,1.13,1.71.59,3.32,1.64,4.91,2.5,10.83,5.82,22.1,11.77,32.77,17.87,10.72,6.25,19.67,11.57,30.42,17.78,3.49,2.01,8.15,5.15,11.57,7.29,47.15,29.47,77.96,78.77,65.84,135.31-.76,3.56-.8,3.99-1,4.54-1.72-1.8-3.12-4.49-4.52-6.58-1.57-2.34-3.15-4.66-4.76-6.97-3.22-4.63-6.52-9.19-9.93-13.69-6.79-8.97-13.97-17.65-21.63-25.89-4.71-5.06-9.65-10-15.14-14.22-10.6-8.15-22.92-14.02-35.74-17.74-6.97-2.02-14.11-3.44-21.29-4.47-5.43-.78-13.86.11-18.7-2.64,0,0-72.47-40.8-90.48-52.6-16.59-10.87-34.3-20.62-48.4-34.79-13.87-13.93-26.78-33.44-32.39-52.34-1.7-5.72-2.67-11.64-3.22-17.58-.45-4.88-.44-9.79-.59-14.68-.07-2.31-.14-4.61-.09-6.92.05-2.23-.06-5.04.74-7.15Z"/>
    </g>
    <path class="cls-1" d="M506.22,782.24v192.57h120.27c20.47,0,35.46-4.51,44.98-13.54,9.51-9.04,15.84-26.92,18.97-53.66h13.37v165.85h-13.37c-.24-19.03-2.71-33.01-7.41-41.92-4.69-8.9-11.2-15.59-19.51-20.05-8.3-4.45-51.68-6.67-68.06-6.67h-89.24v153.91c0,24.81,1.56,41.18,4.69,49.14,2.41,6.02,7.46,11.19,15.17,15.53,10.6,5.78,21.68,8.68,33.24,8.68h17.71v13.36h-210.28v-13.36h17.34c20.23,0,34.92-5.9,44.08-17.71,5.78-7.7,8.67-26.25,8.67-55.63v-316.5c0-24.81-1.57-41.19-4.69-49.14-2.41-6.02-7.35-11.21-14.82-15.53-10.35-5.79-21.44-8.68-33.24-8.68h-17.34v-13.38h407.53l4.69,107.67h-12.64c-6.27-22.88-13.55-39.68-21.86-50.4-8.31-10.72-18.55-18.48-30.71-23.3-12.17-4.81-31.02-7.23-56.55-7.23h-150.99Z"/>
    <path class="cls-1" d="M1568.61,757.39l12.07,147.62h-12.07c-12.19-36.78-27.94-64.5-47.25-83.12-27.82-26.9-63.58-40.35-107.26-40.35-59.56,0-104.85,23.56-135.89,70.7-25.99,39.78-38.97,87.14-38.97,142.1,0,44.61,8.63,85.31,25.87,122.09,17.24,36.78,39.84,63.75,67.77,80.88,27.94,17.12,56.61,25.7,86.05,25.7,17.24,0,33.91-2.19,50.01-6.56,16.09-4.37,31.62-10.81,46.56-19.31v-135.2c0-23.45-1.78-38.8-5.34-46.04-3.57-7.25-9.09-12.77-16.56-16.56-7.47-3.79-20.64-5.69-39.49-5.69v-13.1h181.07v13.1h-8.62c-17.94,0-30.24,5.98-36.9,17.94-4.6,8.51-6.9,25.3-6.9,50.35v143.13c-26.45,14.25-52.55,24.72-78.29,31.39-25.76,6.67-54.38,9.99-85.88,9.99-90.36,0-159-28.97-205.9-86.91-35.18-43.45-52.77-93.58-52.77-150.37,0-41.15,9.88-80.58,29.67-118.3,23.45-44.84,55.64-79.33,96.57-103.47,34.26-20,74.72-30,121.41-30,17.01,0,32.47,1.38,46.39,4.14,13.9,2.75,33.63,8.86,59.15,18.27,12.87,4.84,21.5,7.25,25.87,7.25s8.11-2.02,11.21-6.04c3.11-4.02,5-11.9,5.7-23.63h12.76Z"/>
  </g>
</svg>